<svg width="20" height="20" viewBox="0 0 20 20" fill="none" xmlns="http://www.w3.org/2000/svg">
<path fill-rule="evenodd" clip-rule="evenodd" d="M18.2236 0.76001H1.77641C1.21507 0.76001 0.76001 1.21507 0.76001 1.77641V18.2236C0.76001 18.4932 0.867094 18.7517 1.05771 18.9423C1.24832 19.1329 1.50684 19.24 1.77641 19.24H10.6283V12.079H8.22593V9.30701H10.6283V7.22801C10.5276 6.23999 10.8687 5.25796 11.5602 4.54509C12.2516 3.83223 13.2228 3.46141 14.2134 3.53201C14.9326 3.52758 15.6515 3.56461 16.3664 3.64289V6.13769H14.8972C13.733 6.13769 13.5112 6.69209 13.5112 7.49597V9.27929H16.2832L15.9228 12.0513H13.5112V19.24H18.2236C18.4932 19.24 18.7517 19.1329 18.9423 18.9423C19.1329 18.7517 19.24 18.4932 19.24 18.2236V1.77641C19.24 1.50684 19.1329 1.24832 18.9423 1.05771C18.7517 0.867094 18.4932 0.76001 18.2236 0.76001Z" fill="#919EAB"/>
</svg>
