<svg width="20" height="20" viewBox="0 0 20 20" fill="none" xmlns="http://www.w3.org/2000/svg">
<path fill-rule="evenodd" clip-rule="evenodd" d="M10.0001 0.987915C5.46828 0.988103 1.60538 4.27479 0.87944 8.74811C0.153499 13.2214 2.77878 17.561 7.07799 18.9944C7.53999 19.0752 7.71324 18.798 7.71324 18.5555C7.71324 18.336 7.70168 17.6084 7.70168 16.8345C5.38012 17.2619 4.77952 16.2686 4.59472 15.7488C4.38966 15.2433 4.0646 14.7954 3.64762 14.4437C3.32422 14.2704 2.86222 13.8431 3.63606 13.8315C4.23574 13.8966 4.76599 14.2501 5.05672 14.7786C5.31196 15.2371 5.73918 15.5752 6.24409 15.7182C6.749 15.8613 7.29006 15.7974 7.74785 15.5409C7.78785 15.0712 7.9972 14.632 8.33692 14.3051C6.28102 14.0741 4.13272 13.2771 4.13272 9.74284C4.11974 8.82452 4.4586 7.93603 5.07982 7.25959C4.79734 6.46146 4.83039 5.58557 5.17222 4.81099C5.17222 4.81099 5.94604 4.56843 7.71322 5.75809C9.22515 5.34227 10.8213 5.34227 12.3332 5.75809C14.1004 4.55689 14.8742 4.81099 14.8742 4.81099C15.2161 5.58556 15.2492 6.46147 14.9666 7.25959C15.5897 7.93487 15.9289 8.82414 15.9137 9.74284C15.9137 13.2887 13.7539 14.0741 11.698 14.3051C12.1442 14.7573 12.3718 15.3812 12.3217 16.0145C12.3217 17.2504 12.3101 18.2436 12.3101 18.5555C12.3101 18.7981 12.4834 19.0868 12.9454 18.9944C17.2366 17.5495 19.8499 13.2091 19.119 8.74049C18.3881 4.27187 14.5281 0.990272 10.0001 0.987915Z" fill="#919EAB"/>
</svg>
