<svg width="20" height="20" viewBox="0 0 20 20" fill="none" xmlns="http://www.w3.org/2000/svg">
<path fill-rule="evenodd" clip-rule="evenodd" d="M14.9342 3.95705C14.4857 3.95705 14.0814 4.2272 13.9098 4.64153C13.7381 5.05586 13.833 5.53278 14.1501 5.84989C14.4672 6.167 14.9442 6.26187 15.3585 6.09025C15.7728 5.91863 16.043 5.51432 16.043 5.06585C16.043 4.45348 15.5465 3.95705 14.9342 3.95705ZM19.1846 6.19313C19.1666 5.42649 19.023 4.66798 18.7595 3.94781C18.5246 3.33162 18.1589 2.77366 17.6877 2.31233C17.2301 1.83871 16.6709 1.47535 16.0522 1.24973C15.3339 0.978222 14.5746 0.831352 13.8069 0.81545C12.8274 0.76001 12.5133 0.76001 10 0.76001C7.48673 0.76001 7.17257 0.76001 6.19313 0.81545C5.42543 0.831352 4.66607 0.978222 3.94781 1.24973C3.33028 1.47763 2.7715 1.84068 2.31233 2.31233C1.83871 2.76987 1.47535 3.32914 1.24973 3.94781C0.978222 4.66607 0.831352 5.42543 0.81545 6.19313C0.76001 7.17257 0.76001 7.48673 0.76001 10C0.76001 12.5133 0.76001 12.8274 0.81545 13.8069C0.831352 14.5746 0.978222 15.3339 1.24973 16.0522C1.47535 16.6709 1.83871 17.2301 2.31233 17.6877C2.7715 18.1593 3.33028 18.5224 3.94781 18.7503C4.66607 19.0218 5.42543 19.1687 6.19313 19.1846C7.17257 19.24 7.48673 19.24 10 19.24C12.5133 19.24 12.8274 19.24 13.8069 19.1846C14.5746 19.1687 15.3339 19.0218 16.0522 18.7503C16.6709 18.5247 17.2301 18.1613 17.6877 17.6877C18.161 17.2281 18.527 16.6696 18.7595 16.0522C19.023 15.332 19.1666 14.5735 19.1846 13.8069C19.1846 12.8274 19.24 12.5133 19.24 10C19.24 7.48673 19.24 7.17257 19.1846 6.19313ZM17.5214 13.696C17.5146 14.2825 17.4084 14.8637 17.2072 15.4146C17.0597 15.8168 16.8227 16.1801 16.5142 16.4772C16.2145 16.7826 15.8519 17.0191 15.4516 17.1702C14.9006 17.3715 14.3195 17.4777 13.733 17.4844C12.809 17.5306 12.4671 17.5398 10.037 17.5398C7.60685 17.5398 7.26497 17.5399 6.34097 17.4844C5.73195 17.4958 5.12554 17.402 4.54841 17.2072C4.16567 17.0484 3.8197 16.8125 3.53201 16.5142C3.22532 16.2174 2.99132 15.8537 2.84825 15.4516C2.62266 14.8927 2.49754 14.2984 2.47865 13.696C2.47865 12.772 2.42321 12.4301 2.42321 10C2.42321 7.56989 2.42321 7.22801 2.47865 6.30401C2.48279 5.70438 2.59226 5.11015 2.80205 4.54841C2.96472 4.1584 3.2144 3.81074 3.53201 3.53201C3.81273 3.21431 4.15967 2.96199 4.54841 2.79281C5.11163 2.58957 5.70526 2.48334 6.30401 2.47865C7.22801 2.47865 7.56989 2.42321 10 2.42321C12.4301 2.42321 12.772 2.42321 13.696 2.47865C14.2825 2.48538 14.8637 2.59161 15.4146 2.79281C15.8345 2.94864 16.2114 3.202 16.5142 3.53201C16.817 3.81584 17.0536 4.16285 17.2072 4.54841C17.4126 5.11106 17.5189 5.70505 17.5214 6.30401C17.5676 7.22801 17.5768 7.56989 17.5768 10C17.5768 12.4301 17.5676 12.772 17.5214 13.696ZM10 5.25989C7.38332 5.26499 5.26574 7.38947 5.26913 10.0062C5.27253 12.6228 7.39563 14.7418 10.0123 14.7401C12.629 14.7384 14.7494 12.6167 14.7494 10C14.7518 8.74049 14.252 7.53199 13.3605 6.64224C12.469 5.75249 11.2595 5.25497 10 5.25989ZM10 13.0769C8.30067 13.0769 6.92309 11.6993 6.92309 10C6.92309 8.30067 8.30067 6.92309 10 6.92309C11.6993 6.92309 13.0769 8.30067 13.0769 10C13.0769 10.8161 12.7528 11.5987 12.1757 12.1757C11.5987 12.7528 10.8161 13.0769 10 13.0769Z" fill="#919EAB"/>
</svg>
