<svg width="20" height="20" viewBox="0 0 20 20" fill="none" xmlns="http://www.w3.org/2000/svg">
<path fill-rule="evenodd" clip-rule="evenodd" d="M17.8263 0.759895H2.17371C1.81836 0.75496 1.47561 0.891405 1.22088 1.13921C0.966144 1.38701 0.820297 1.72587 0.81543 2.08122V17.9186C0.820297 18.2739 0.966144 18.6128 1.22088 18.8606C1.47561 19.1084 1.81836 19.2448 2.17371 19.2399H17.8263C18.1816 19.2448 18.5244 19.1084 18.7791 18.8606C19.0338 18.6128 19.1797 18.2739 19.1846 17.9186V2.08122C19.1797 1.72587 19.0338 1.38701 18.7791 1.13921C18.5244 0.891405 18.1816 0.75496 17.8263 0.759895ZM6.38715 16.2276H3.61515V7.91164H6.38715V16.2276ZM5.00115 6.7474C4.20506 6.7474 3.55971 6.10204 3.55971 5.30596C3.55971 4.50987 4.20506 3.86452 5.00115 3.86452C5.5551 3.8017 6.09604 4.06188 6.39276 4.53385C6.68948 5.00583 6.68948 5.60609 6.39276 6.07806C6.09604 6.55004 5.5551 6.81022 5.00115 6.7474ZM16.3848 16.2276H13.6128V11.7647C13.6128 10.6467 13.2155 9.91672 12.2084 9.91672C11.5699 9.92139 11.0021 10.3233 10.7854 10.9239C10.7131 11.1411 10.6818 11.3698 10.693 11.5984V16.2184H7.92099C7.92099 16.2184 7.92099 8.66008 7.92099 7.9024H10.693V9.07588C11.2062 8.18539 12.1699 7.65194 13.197 7.68988C15.045 7.68988 16.3848 8.88184 16.3848 11.4413V16.2276Z" fill="#919EAB"/>
</svg>
