<svg width="20" height="16" viewBox="0 0 20 16" fill="none" xmlns="http://www.w3.org/2000/svg">
<path fill-rule="evenodd" clip-rule="evenodd" d="M19.24 2.24086C18.5455 2.54377 17.811 2.74401 17.0594 2.83535C17.8523 2.35913 18.4465 1.60994 18.7318 0.726771C17.9867 1.1727 17.171 1.48688 16.3202 1.65566C15.1505 0.380558 13.2716 0.0609976 11.7499 0.878356C10.2281 1.69571 9.44794 3.4435 9.85217 5.1297C6.80515 4.97477 3.96695 3.52622 2.04437 1.14477C1.71093 1.73013 1.53573 2.39303 1.53617 3.06757C1.53377 4.33988 2.16506 5.52894 3.21785 6.23508C2.61538 6.2186 2.02578 6.05608 1.49921 5.76135V5.80779C1.50852 7.61725 2.78304 9.1703 4.54841 9.52335C4.21878 9.6242 3.87655 9.67737 3.53201 9.68126C3.29352 9.67846 3.05562 9.65672 2.82053 9.61624C3.32039 11.1639 4.74112 12.223 6.35945 12.2543C5.0263 13.3088 3.38037 13.8843 1.68401 13.8891C1.37515 13.8901 1.06653 13.8715 0.76001 13.8334C2.49198 14.9576 4.51035 15.5544 6.57197 15.5518C9.44585 15.5818 12.2111 14.4493 14.246 12.4089C16.2808 10.3686 17.4145 7.59157 17.392 4.70242C17.392 4.5445 17.392 4.3773 17.392 4.2101C18.1171 3.66653 18.7424 3.00016 19.24 2.24086Z" fill="#919EAB"/>
</svg>
