<svg width="20" height="20" viewBox="0 0 20 20" fill="none" xmlns="http://www.w3.org/2000/svg">
<path d="M1.66663 1.66669H2.7551C2.96011 1.66669 3.06262 1.66669 3.14511 1.70439C3.21781 1.73761 3.27941 1.79104 3.32258 1.85831C3.37157 1.93464 3.38607 2.03612 3.41506 2.23907L3.80948 5.00002M3.80948 5.00002L4.68606 11.4429C4.7973 12.2605 4.85292 12.6693 5.04838 12.977C5.22061 13.2481 5.46753 13.4637 5.75942 13.5978C6.09068 13.75 6.50325 13.75 7.32838 13.75H14.46C15.2454 13.75 15.6381 13.75 15.9591 13.6087C16.2421 13.4841 16.4848 13.2832 16.6602 13.0285C16.8591 12.7397 16.9326 12.3539 17.0795 11.5823L18.1825 5.79143C18.2343 5.51986 18.2601 5.38408 18.2227 5.27794C18.1898 5.18483 18.1249 5.10642 18.0396 5.0567C17.9423 5.00002 17.8041 5.00002 17.5277 5.00002H3.80948ZM8.33329 17.5C8.33329 17.9603 7.9602 18.3334 7.49996 18.3334C7.03972 18.3334 6.66663 17.9603 6.66663 17.5C6.66663 17.0398 7.03972 16.6667 7.49996 16.6667C7.9602 16.6667 8.33329 17.0398 8.33329 17.5ZM15 17.5C15 17.9603 14.6269 18.3334 14.1666 18.3334C13.7064 18.3334 13.3333 17.9603 13.3333 17.5C13.3333 17.0398 13.7064 16.6667 14.1666 16.6667C14.6269 16.6667 15 17.0398 15 17.5Z" stroke="#344054" stroke-width="1.66667" stroke-linecap="round" stroke-linejoin="round"/>
</svg>
