<svg width="16" height="14" viewBox="0 0 16 14" fill="none" xmlns="http://www.w3.org/2000/svg">
<path d="M13.8704 2.85714C13.8494 2.79298 13.8088 2.73698 13.754 2.69714L10.314 0.197778C10.2593 0.158098 10.1934 0.136658 10.1259 0.136658H5.87389C5.80637 0.136658 5.74045 0.158098 5.68573 0.197778L2.24573 2.69714C2.19101 2.73698 2.15037 2.79298 2.12941 2.85714L0.815649 6.90114C0.794849 6.96546 0.794849 7.03458 0.815649 7.0989L2.12957 11.1429C2.15053 11.2071 2.19117 11.2631 2.24589 11.3029L5.68589 13.8023C5.74061 13.8419 5.80653 13.8634 5.87405 13.8634H10.1262C10.1937 13.8634 10.2596 13.8419 10.3144 13.8023L13.7544 11.3029C13.8091 11.2631 13.8497 11.2071 13.8707 11.1429L15.1846 7.0989C15.2054 7.03458 15.2054 6.96546 15.1846 6.90114L13.8704 2.85714ZM14.4785 6.80002H11.8101L11.1998 4.92226L13.3588 3.35378L14.4785 6.80002ZM10.1921 13.0997L9.36749 10.5618L10.9648 9.4013L13.1238 10.9698L10.1921 13.0997ZM2.87613 10.9698L5.03517 9.4013L6.63037 10.5603L5.76925 13.0717L2.87613 10.9698ZM7.01037 10.6855H8.98717L9.81181 13.2232H6.14013L7.01037 10.6855ZM10.7947 9.03058L9.06749 10.2855H6.93245L5.20525 9.03058L4.54541 7.00002L5.20525 4.96946L6.93245 3.71458H9.06749L10.7947 4.96946L11.4545 7.00002L10.7947 9.03058ZM5.80781 0.900338L6.63245 3.43826L5.03517 4.59874L2.87613 3.03026L5.80781 0.900338ZM13.1238 3.03026L10.9648 4.59874L9.36749 3.43826L10.1921 0.900338L13.1238 3.03026ZM8.98717 3.31458H7.01277L6.18813 0.776818H9.81181L8.98717 3.31458ZM2.64109 3.35378L4.80013 4.92226L4.18989 6.80002H1.52141L2.64109 3.35378ZM1.52141 7.20002H4.18989L4.80013 9.07778L2.64109 10.6463L1.52141 7.20002ZM13.3588 10.6463L11.1998 9.07778L11.8101 7.20002H14.4785L13.3588 10.6463Z" fill="#35719C"/>
</svg>
