<svg width="18" height="18" viewBox="0 0 18 18" fill="none" xmlns="http://www.w3.org/2000/svg">
<path fill-rule="evenodd" clip-rule="evenodd" d="M11.5199 13.7435V16.1153C11.5199 16.2712 11.4932 16.4209 11.444 16.56H12.5576C13.7856 16.56 14.7811 15.5645 14.7811 14.3365V7.53415L15.8224 8.44527C16.0072 8.607 16.2882 8.58827 16.4499 8.40343C16.6116 8.2186 16.5929 7.93765 16.4081 7.77592L9.29278 1.55003C9.12512 1.40333 8.87477 1.40333 8.7071 1.55003L1.59181 7.77592C1.40698 7.93765 1.38825 8.2186 1.54998 8.40343C1.71171 8.58827 1.99266 8.607 2.17749 8.44527L3.21877 7.53415V14.3365C3.21877 15.5645 4.21428 16.56 5.4423 16.56H6.55585C6.50669 16.4209 6.47994 16.2712 6.47994 16.1153V13.7435C6.47994 12.5155 7.60251 11.52 8.83053 11.52H9.16935C10.3974 11.52 11.5199 12.5155 11.5199 13.7435ZM7.19994 13.752C7.19994 12.9169 7.87689 12.24 8.71194 12.24H9.28794C10.123 12.24 10.7999 12.9169 10.7999 13.752V16.056C10.7999 16.3344 10.5743 16.56 10.2959 16.56H7.70394C7.42559 16.56 7.19994 16.3344 7.19994 16.056V13.752Z" fill="#C4CDD5"/>
</svg>
