<svg width="16" height="16" viewBox="0 0 16 16" fill="none" xmlns="http://www.w3.org/2000/svg">
<path d="M5.66659 9.77776C5.66659 10.6369 6.36303 11.3333 7.22214 11.3333H8.66659C9.58706 11.3333 10.3333 10.5871 10.3333 9.66665C10.3333 8.74617 9.58706 7.99998 8.66659 7.99998H7.33325C6.41278 7.99998 5.66659 7.25379 5.66659 6.33331C5.66659 5.41284 6.41278 4.66665 7.33325 4.66665H8.7777C9.63681 4.66665 10.3333 5.36309 10.3333 6.2222M7.99992 3.66665V4.66665M7.99992 11.3333V12.3333M14.6666 7.99998C14.6666 11.6819 11.6818 14.6666 7.99992 14.6666C4.31802 14.6666 1.33325 11.6819 1.33325 7.99998C1.33325 4.31808 4.31802 1.33331 7.99992 1.33331C11.6818 1.33331 14.6666 4.31808 14.6666 7.99998Z" stroke="#344054" stroke-width="1.5" stroke-linecap="round" stroke-linejoin="round"/>
</svg>
