<svg width="14" height="16" viewBox="0 0 14 16" fill="none" xmlns="http://www.w3.org/2000/svg">
<path d="M7.00008 9.66666V5.66666M5.00008 7.66666H9.00008M12.3334 8C12.3334 11.2723 8.76411 13.6523 7.46541 14.4099C7.31781 14.496 7.24402 14.5391 7.13987 14.5614C7.05904 14.5787 6.94112 14.5787 6.86029 14.5614C6.75615 14.5391 6.68235 14.496 6.53475 14.4099C5.23606 13.6523 1.66675 11.2723 1.66675 8V4.81173C1.66675 4.27872 1.66675 4.01222 1.75392 3.78313C1.83093 3.58076 1.95607 3.40018 2.11852 3.25702C2.30241 3.09495 2.55195 3.00138 3.05102 2.81423L6.62555 1.47378C6.76415 1.4218 6.83344 1.39582 6.90474 1.38552C6.96797 1.37638 7.03219 1.37638 7.09542 1.38552C7.16672 1.39582 7.23602 1.4218 7.37461 1.47378L10.9491 2.81423C11.4482 3.00138 11.6978 3.09495 11.8816 3.25702C12.0441 3.40018 12.1692 3.58076 12.2462 3.78313C12.3334 4.01222 12.3334 4.27872 12.3334 4.81173V8Z" stroke="#344054" stroke-width="1.5" stroke-linecap="round" stroke-linejoin="round"/>
</svg>
