<svg width="16" height="16" viewBox="0 0 16 16" fill="none" xmlns="http://www.w3.org/2000/svg">
<path fill-rule="evenodd" clip-rule="evenodd" d="M6.03151 7.41002L8.26432 9.76034C8.50639 10.0152 8.94482 10.0515 9.43324 9.81142C10.6763 9.29735 11.0898 9.17202 11.3259 9.42055L13.8926 12.1223C14.196 12.4416 14.115 12.9736 13.7757 13.3307C12.014 15.1851 9.15067 15.1851 7.389 13.3307L2.59442 8.28378C0.841573 6.43868 0.841573 3.45365 2.59442 1.60855C2.94085 1.24389 3.47286 1.15416 3.78768 1.48555L6.35431 4.18727C6.57677 4.42144 6.45749 4.8576 5.97178 6.15716C5.74599 6.66444 5.78217 7.14755 6.03151 7.41002Z" fill="#C4CDD5"/>
</svg>
