<svg width="36" height="36" viewBox="0 0 36 36" fill="none" xmlns="http://www.w3.org/2000/svg">
<path d="M33.1337 9.4492C33.1013 9.3564 33.0521 9.27 32.9885 9.1952L27.2101 2.3868C27.0829 2.2368 26.9053 2.1392 26.7105 2.112L18.1105 0.912003C18.0369 0.902003 17.9629 0.902003 17.8893 0.912003L9.28929 2.112C9.08329 2.1408 8.89689 2.2484 8.76889 2.4124L3.43009 9.26C3.38449 9.3184 3.34729 9.3828 3.31969 9.4516L0.058894 17.4996C-0.014706 17.6808 -0.0191061 17.8824 0.0460939 18.0664L2.96049 26.3144C2.99329 26.4072 3.04289 26.4928 3.10689 26.5676L8.79249 33.2156C8.91129 33.3548 9.07449 33.4488 9.25409 33.4824L17.8541 35.0824C17.9025 35.0912 17.9513 35.096 18.0005 35.096C18.0497 35.096 18.0985 35.0916 18.1469 35.0824L26.7469 33.4824C26.9389 33.4468 27.1113 33.3416 27.2313 33.188L32.5705 26.34C32.6161 26.2816 32.6533 26.2172 32.6809 26.1484L35.9417 18.1004C36.0149 17.9204 36.0197 17.72 35.9557 17.5364L33.1337 9.4492ZM19.0001 7.8696L26.1001 3.7704V11.9688L19.0001 7.8696ZM26.1001 13.1236V22.4768L18.0001 27.1532L9.90009 22.4764V13.1236L18.0001 8.4468L26.1001 13.1236ZM18.5001 7.0036V2.582L24.6681 3.4424L18.5001 7.0036ZM17.5001 7.0036L11.3321 3.4424L17.5001 2.582V7.0036ZM17.0001 7.8696L9.90009 11.9688V3.7704L17.0001 7.8696ZM8.90009 21.8992L1.80009 17.8L8.90009 13.7008V21.8992ZM17.0001 27.7304L9.90009 31.8296V23.6312L17.0001 27.7304ZM17.5001 28.5964V33.3888L11.2221 32.2208L17.5001 28.5964ZM18.5001 28.5964L24.7777 32.2208L18.5001 33.3888V28.5964ZM19.0001 27.7304L26.1001 23.6312V31.8296L19.0001 27.7304ZM27.1001 13.7008L34.2001 17.8L27.1001 21.8992V13.7008ZM33.8869 16.4644L27.7857 12.942L31.8409 10.6008L33.8869 16.4644ZM31.3457 9.732L27.1001 12.1832V4.73L31.3457 9.732ZM8.90009 4.8468V11.9688L5.07089 9.758L8.90009 4.8468ZM4.57089 10.624L8.40009 12.8348L2.23209 16.396L4.57089 10.624ZM2.12209 19.1408L8.40009 22.7652L4.24969 25.1616L2.12209 19.1408ZM4.74969 26.0276L8.90009 23.6312V30.8804L4.74969 26.0276ZM27.1001 30.7532V23.6312L30.9293 25.842L27.1001 30.7532ZM31.4293 24.976L27.6001 22.7652L33.7681 19.204L31.4293 24.976Z" fill="#35719C"/>
</svg>
